P1
6 7
000000
011110
010000
011100
010000
010000
000000
